<?xml version="1.0" encoding="UTF-8"?>
<!DOCTYPE svg PUBLIC "-//W3C//DTD SVG 1.1//EN" "http://www.w3.org/Graphics/SVG/1.1/DTD/svg11.dtd">
<!-- Creator: CorelDRAW -->
<svg xmlns="http://www.w3.org/2000/svg" xml:space="preserve" width="140.572mm" height="144.404mm" version="1.1" style="shape-rendering:geometricPrecision; text-rendering:geometricPrecision; image-rendering:optimizeQuality; fill-rule:evenodd; clip-rule:evenodd"
viewBox="0 0 14057.16 14440.42"
 xmlns:xlink="http://www.w3.org/1999/xlink"
 xmlns:xodm="http://www.corel.com/coreldraw/odm/2003">
 <defs>
  <style type="text/css">
   <![CDATA[
    .fil0 {fill:#86C232;fill-rule:nonzero}
   ]]>
  </style>
 </defs>
 <g id="Layer_x0020_1">
  <metadata id="CorelCorpID_0Corel-Layer"/>
  <path class="fil0" d="M11503.39 6890.14c782.25,302.56 1403.43,766.72 1863.56,1392.47 460.14,625.75 690.21,1330.58 690.21,2114.49 0,1265.26 -540.66,2255.46 -1621.97,2970.61 -1081.33,715.15 -2572.93,1072.71 -4474.83,1072.71l-990.01 0 0 -4398.27 4211.55 -6424.12 217.28 -331.43 -1327.53 0 -3654.08 5637.71 -3654.05 -5637.71 -1310.82 0 4412.1 6754.53 0 4399.29 -5864.8 0 0 -14440.42 7960.36 0c1733.18,0 3098.24,343.81 4095.21,1031.45 996.97,687.64 1495.44,1622.83 1495.44,2805.58 0,701.39 -180.22,1316.83 -540.66,1846.3 -360.45,529.48 -862.77,931.75 -1506.96,1206.81z"/>
 </g>
</svg>
